<svg width="1358" height="691" fill="none" xmlns="http://www.w3.org/2000/svg"><circle cx="1155" cy="631" r="55.6" stroke="#FF007A" stroke-width="8.8"/><circle cx="255.5" cy="507.5" r="3.5" fill="#E7F0FC"/><circle cx="255.5" cy="528.5" r="3.5" fill="#E7F0FC"/><circle cx="255.5" cy="549.5" r="3.5" fill="#E7F0FC"/><circle cx="255.5" cy="570.5" r="3.5" fill="#E7F0FC"/><circle cx="255.5" cy="591.5" r="3.5" fill="#E7F0FC"/><circle cx="255.5" cy="612.5" r="3.5" fill="#E7F0FC"/><circle cx="255.5" cy="633.5" r="3.5" fill="#E7F0FC"/><circle cx="255.5" cy="654.5" r="3.5" fill="#E7F0FC"/><circle cx="276.5" cy="507.5" r="3.5" fill="#E7F0FC"/><circle cx="276.5" cy="528.5" r="3.5" fill="#E7F0FC"/><circle cx="276.5" cy="549.5" r="3.5" fill="#E7F0FC"/><circle cx="276.5" cy="570.5" r="3.5" fill="#E7F0FC"/><circle cx="276.5" cy="591.5" r="3.5" fill="#E7F0FC"/><circle cx="276.5" cy="612.5" r="3.5" fill="#E7F0FC"/><circle cx="276.5" cy="633.5" r="3.5" fill="#E7F0FC"/><circle cx="276.5" cy="654.5" r="3.5" fill="#E7F0FC"/><circle cx="297.5" cy="507.5" r="3.5" fill="#E7F0FC"/><circle cx="297.5" cy="528.5" r="3.5" fill="#E7F0FC"/><circle cx="297.5" cy="549.5" r="3.5" fill="#E7F0FC"/><circle cx="297.5" cy="570.5" r="3.5" fill="#E7F0FC"/><circle cx="297.5" cy="591.5" r="3.5" fill="#E7F0FC"/><circle cx="297.5" cy="612.5" r="3.5" fill="#E7F0FC"/><circle cx="297.5" cy="633.5" r="3.5" fill="#E7F0FC"/><circle cx="297.5" cy="654.5" r="3.5" fill="#E7F0FC"/><circle cx="318.5" cy="507.5" r="3.5" fill="#E7F0FC"/><circle cx="318.5" cy="528.5" r="3.5" fill="#E7F0FC"/><circle cx="318.5" cy="549.5" r="3.5" fill="#E7F0FC"/><circle cx="318.5" cy="570.5" r="3.5" fill="#E7F0FC"/><circle cx="318.5" cy="591.5" r="3.5" fill="#E7F0FC"/><circle cx="318.5" cy="612.5" r="3.5" fill="#E7F0FC"/><circle cx="318.5" cy="633.5" r="3.5" fill="#E7F0FC"/><circle cx="318.5" cy="654.5" r="3.5" fill="#E7F0FC"/><circle cx="339.5" cy="507.5" r="3.5" fill="#E7F0FC"/><circle cx="339.5" cy="528.5" r="3.5" fill="#E7F0FC"/><circle cx="339.5" cy="549.5" r="3.5" fill="#E7F0FC"/><circle cx="339.5" cy="570.5" r="3.5" fill="#E7F0FC"/><circle cx="339.5" cy="591.5" r="3.5" fill="#E7F0FC"/><circle cx="339.5" cy="612.5" r="3.5" fill="#E7F0FC"/><circle cx="339.5" cy="633.5" r="3.5" fill="#E7F0FC"/><circle cx="339.5" cy="654.5" r="3.5" fill="#E7F0FC"/><circle cx="360.5" cy="507.5" r="3.5" fill="#E7F0FC"/><circle cx="360.5" cy="528.5" r="3.5" fill="#E7F0FC"/><circle cx="360.5" cy="549.5" r="3.5" fill="#E7F0FC"/><circle cx="360.5" cy="570.5" r="3.5" fill="#E7F0FC"/><circle cx="360.5" cy="591.5" r="3.5" fill="#E7F0FC"/><circle cx="360.5" cy="612.5" r="3.5" fill="#E7F0FC"/><circle cx="360.5" cy="633.5" r="3.5" fill="#E7F0FC"/><circle cx="360.5" cy="654.5" r="3.5" fill="#E7F0FC"/><circle cx="381.5" cy="507.5" r="3.5" fill="#E7F0FC"/><circle cx="381.5" cy="528.5" r="3.5" fill="#E7F0FC"/><circle cx="381.5" cy="549.5" r="3.5" fill="#E7F0FC"/><circle cx="381.5" cy="570.5" r="3.5" fill="#E7F0FC"/><circle cx="381.5" cy="591.5" r="3.5" fill="#E7F0FC"/><circle cx="381.5" cy="612.5" r="3.5" fill="#E7F0FC"/><circle cx="381.5" cy="633.5" r="3.5" fill="#E7F0FC"/><circle cx="381.5" cy="654.5" r="3.5" fill="#E7F0FC"/><circle cx="402.5" cy="507.5" r="3.5" fill="#E7F0FC"/><circle cx="402.5" cy="528.5" r="3.5" fill="#E7F0FC"/><circle cx="402.5" cy="549.5" r="3.5" fill="#E7F0FC"/><circle cx="402.5" cy="570.5" r="3.5" fill="#E7F0FC"/><circle cx="402.5" cy="591.5" r="3.5" fill="#E7F0FC"/><circle cx="402.5" cy="612.5" r="3.5" fill="#E7F0FC"/><circle cx="402.5" cy="633.5" r="3.5" fill="#E7F0FC"/><circle cx="402.5" cy="654.5" r="3.5" fill="#E7F0FC"/><circle cx="423.5" cy="507.5" r="3.5" fill="#E7F0FC"/><circle cx="423.5" cy="528.5" r="3.5" fill="#E7F0FC"/><circle cx="423.5" cy="549.5" r="3.5" fill="#E7F0FC"/><circle cx="423.5" cy="570.5" r="3.5" fill="#E7F0FC"/><circle cx="423.5" cy="591.5" r="3.5" fill="#E7F0FC"/><circle cx="423.5" cy="612.5" r="3.5" fill="#E7F0FC"/><circle cx="423.5" cy="633.5" r="3.5" fill="#E7F0FC"/><circle cx="423.5" cy="654.5" r="3.5" fill="#E7F0FC"/><circle cx="444.5" cy="507.5" r="3.5" fill="#E7F0FC"/><circle cx="444.5" cy="528.5" r="3.5" fill="#E7F0FC"/><circle cx="444.5" cy="549.5" r="3.5" fill="#E7F0FC"/><circle cx="444.5" cy="570.5" r="3.5" fill="#E7F0FC"/><circle cx="444.5" cy="591.5" r="3.5" fill="#E7F0FC"/><circle cx="444.5" cy="612.5" r="3.5" fill="#E7F0FC"/><circle cx="444.5" cy="633.5" r="3.5" fill="#E7F0FC"/><circle cx="444.5" cy="654.5" r="3.5" fill="#E7F0FC"/><circle cx="46.5" cy="507.5" r="3.5" fill="#E7F0FC"/><circle cx="46.5" cy="528.5" r="3.5" fill="#E7F0FC"/><circle cx="46.5" cy="549.5" r="3.5" fill="#E7F0FC"/><circle cx="46.5" cy="570.5" r="3.5" fill="#E7F0FC"/><circle cx="46.5" cy="591.5" r="3.5" fill="#E7F0FC"/><circle cx="46.5" cy="612.5" r="3.5" fill="#E7F0FC"/><circle cx="46.5" cy="633.5" r="3.5" fill="#E7F0FC"/><circle cx="46.5" cy="654.5" r="3.5" fill="#E7F0FC"/><circle cx="67.5" cy="507.5" r="3.5" fill="#E7F0FC"/><circle cx="67.5" cy="528.5" r="3.5" fill="#E7F0FC"/><circle cx="67.5" cy="549.5" r="3.5" fill="#E7F0FC"/><circle cx="67.5" cy="570.5" r="3.5" fill="#E7F0FC"/><circle cx="67.5" cy="591.5" r="3.5" fill="#E7F0FC"/><circle cx="67.5" cy="612.5" r="3.5" fill="#E7F0FC"/><circle cx="67.5" cy="633.5" r="3.5" fill="#E7F0FC"/><circle cx="67.5" cy="654.5" r="3.5" fill="#E7F0FC"/><circle cx="88.5" cy="507.5" r="3.5" fill="#E7F0FC"/><circle cx="88.5" cy="528.5" r="3.5" fill="#E7F0FC"/><circle cx="88.5" cy="549.5" r="3.5" fill="#E7F0FC"/><circle cx="88.5" cy="570.5" r="3.5" fill="#E7F0FC"/><circle cx="88.5" cy="591.5" r="3.5" fill="#E7F0FC"/><circle cx="88.5" cy="612.5" r="3.5" fill="#E7F0FC"/><circle cx="88.5" cy="633.5" r="3.5" fill="#E7F0FC"/><circle cx="88.5" cy="654.5" r="3.5" fill="#E7F0FC"/><circle cx="109.5" cy="507.5" r="3.5" fill="#E7F0FC"/><circle cx="109.5" cy="528.5" r="3.5" fill="#E7F0FC"/><circle cx="109.5" cy="549.5" r="3.5" fill="#E7F0FC"/><circle cx="109.5" cy="570.5" r="3.5" fill="#E7F0FC"/><circle cx="109.5" cy="591.5" r="3.5" fill="#E7F0FC"/><circle cx="109.5" cy="612.5" r="3.5" fill="#E7F0FC"/><circle cx="109.5" cy="633.5" r="3.5" fill="#E7F0FC"/><circle cx="109.5" cy="654.5" r="3.5" fill="#E7F0FC"/><circle cx="130.5" cy="507.5" r="3.5" fill="#E7F0FC"/><circle cx="130.5" cy="528.5" r="3.5" fill="#E7F0FC"/><circle cx="130.5" cy="549.5" r="3.5" fill="#E7F0FC"/><circle cx="130.5" cy="570.5" r="3.5" fill="#E7F0FC"/><circle cx="130.5" cy="591.5" r="3.5" fill="#E7F0FC"/><circle cx="130.5" cy="612.5" r="3.5" fill="#E7F0FC"/><circle cx="130.5" cy="633.5" r="3.5" fill="#E7F0FC"/><circle cx="130.5" cy="654.5" r="3.5" fill="#E7F0FC"/><circle cx="151.5" cy="507.5" r="3.5" fill="#E7F0FC"/><circle cx="151.5" cy="528.5" r="3.5" fill="#E7F0FC"/><circle cx="151.5" cy="549.5" r="3.5" fill="#E7F0FC"/><circle cx="151.5" cy="570.5" r="3.5" fill="#E7F0FC"/><circle cx="151.5" cy="591.5" r="3.5" fill="#E7F0FC"/><circle cx="151.5" cy="612.5" r="3.5" fill="#E7F0FC"/><circle cx="151.5" cy="633.5" r="3.5" fill="#E7F0FC"/><circle cx="151.5" cy="654.5" r="3.5" fill="#E7F0FC"/><circle cx="172.5" cy="507.5" r="3.5" fill="#E7F0FC"/><circle cx="172.5" cy="528.5" r="3.5" fill="#E7F0FC"/><circle cx="172.5" cy="549.5" r="3.5" fill="#E7F0FC"/><circle cx="172.5" cy="570.5" r="3.5" fill="#E7F0FC"/><circle cx="172.5" cy="591.5" r="3.5" fill="#E7F0FC"/><circle cx="172.5" cy="612.5" r="3.5" fill="#E7F0FC"/><circle cx="172.5" cy="633.5" r="3.5" fill="#E7F0FC"/><circle cx="172.5" cy="654.5" r="3.5" fill="#E7F0FC"/><circle cx="193.5" cy="507.5" r="3.5" fill="#E7F0FC"/><circle cx="193.5" cy="528.5" r="3.5" fill="#E7F0FC"/><circle cx="193.5" cy="549.5" r="3.5" fill="#E7F0FC"/><circle cx="193.5" cy="570.5" r="3.5" fill="#E7F0FC"/><circle cx="193.5" cy="591.5" r="3.5" fill="#E7F0FC"/><circle cx="193.5" cy="612.5" r="3.5" fill="#E7F0FC"/><circle cx="193.5" cy="633.5" r="3.5" fill="#E7F0FC"/><circle cx="193.5" cy="654.5" r="3.5" fill="#E7F0FC"/><circle cx="214.5" cy="507.5" r="3.5" fill="#E7F0FC"/><circle cx="214.5" cy="528.5" r="3.5" fill="#E7F0FC"/><circle cx="214.5" cy="549.5" r="3.5" fill="#E7F0FC"/><circle cx="214.5" cy="570.5" r="3.5" fill="#E7F0FC"/><circle cx="214.5" cy="591.5" r="3.5" fill="#E7F0FC"/><circle cx="214.5" cy="612.5" r="3.5" fill="#E7F0FC"/><circle cx="214.5" cy="633.5" r="3.5" fill="#E7F0FC"/><circle cx="214.5" cy="654.5" r="3.5" fill="#E7F0FC"/><circle cx="235.5" cy="507.5" r="3.5" fill="#E7F0FC"/><circle cx="235.5" cy="528.5" r="3.5" fill="#E7F0FC"/><circle cx="235.5" cy="549.5" r="3.5" fill="#E7F0FC"/><circle cx="235.5" cy="570.5" r="3.5" fill="#E7F0FC"/><circle cx="235.5" cy="591.5" r="3.5" fill="#E7F0FC"/><circle cx="235.5" cy="612.5" r="3.5" fill="#E7F0FC"/><circle cx="235.5" cy="633.5" r="3.5" fill="#E7F0FC"/><circle cx="235.5" cy="654.5" r="3.5" fill="#E7F0FC"/><path d="M311 150C311 67.157 378.157 0 461 0h897v619H311V150Z" fill="#F4F9FF"/><path d="M178 338H0v-78c0-55.228 44.772-100 100-100h78v178Z" fill="#FFF5DB"/></svg>