<svg width="248" height="65" viewBox="0 0 248 65" fill="none" xmlns="http://www.w3.org/2000/svg">
<path d="M83.5371 20.6623H79.294L79.3205 17.2724H83.5371C84.5007 17.2724 85.314 17.0482 85.977 16.5998C86.64 16.1424 87.1438 15.4698 87.4886 14.582C87.8334 13.6852 88.0057 12.5955 88.0057 11.3131V10.4118C88.0057 9.44329 87.9085 8.59134 87.714 7.85596C87.5195 7.11162 87.2322 6.48834 86.8521 5.98613C86.472 5.48393 85.9991 5.10727 85.4333 4.85617C84.8764 4.60506 84.2355 4.47951 83.5106 4.47951H79.2144V1.07616H83.5106C84.8189 1.07616 86.0123 1.30036 87.0908 1.74876C88.1781 2.19716 89.1152 2.83837 89.9019 3.67239C90.6975 4.50642 91.3119 5.49289 91.745 6.63183C92.1782 7.77076 92.3948 9.03973 92.3948 10.4387V11.3131C92.3948 12.7032 92.1782 13.9721 91.745 15.12C91.3119 16.259 90.6975 17.2454 89.9019 18.0795C89.1152 18.9045 88.1825 19.5413 87.1041 19.9897C86.0256 20.4381 84.8366 20.6623 83.5371 20.6623ZM81.7471 1.07616V20.6623H77.4243V1.07616H81.7471Z" fill="#1F50FE"/>
<path d="M99.1839 6.1072V20.6623H95.0335V6.1072H99.1839ZM94.7816 2.34065C94.7816 1.73082 94.9937 1.2331 95.418 0.847475C95.8424 0.452884 96.3993 0.255588 97.0888 0.255588C97.7783 0.255588 98.3352 0.452884 98.7595 0.847475C99.1927 1.2331 99.4093 1.73082 99.4093 2.34065C99.4093 2.9415 99.1927 3.43922 98.7595 3.83382C98.3352 4.21944 97.7783 4.41225 97.0888 4.41225C96.3993 4.41225 95.8424 4.21944 95.418 3.83382C94.9937 3.43922 94.7816 2.9415 94.7816 2.34065Z" fill="#1F50FE"/>
<path d="M111.211 6.1072H114.976V20.1376C114.976 21.4739 114.676 22.6083 114.075 23.541C113.482 24.4736 112.656 25.1821 111.595 25.6664C110.534 26.1507 109.292 26.3928 107.869 26.3928C107.25 26.3928 106.605 26.3076 105.933 26.1372C105.261 25.9758 104.629 25.7292 104.037 25.3974C103.445 25.0745 102.95 24.662 102.552 24.1598L104.315 21.6846C104.722 22.1509 105.208 22.5276 105.774 22.8146C106.34 23.1105 106.985 23.2585 107.71 23.2585C108.373 23.2585 108.934 23.1374 109.394 22.8953C109.854 22.6531 110.203 22.2989 110.442 21.8326C110.689 21.3662 110.813 20.8013 110.813 20.1376V9.51055L111.211 6.1072ZM101.624 13.5596V13.2771C101.624 12.174 101.756 11.1696 102.021 10.2639C102.287 9.34913 102.671 8.56443 103.175 7.90977C103.688 7.24614 104.302 6.73496 105.018 6.37624C105.743 6.01752 106.556 5.83816 107.458 5.83816C108.43 5.83816 109.235 6.02649 109.871 6.40315C110.508 6.77083 111.025 7.29098 111.423 7.96358C111.821 8.62721 112.134 9.41191 112.364 10.3177C112.594 11.2145 112.78 12.1875 112.921 13.2368V13.721C112.78 14.7254 112.576 15.6626 112.311 16.5325C112.046 17.4024 111.701 18.1692 111.277 18.8328C110.853 19.4874 110.322 20.0031 109.686 20.3798C109.058 20.7474 108.307 20.9313 107.432 20.9313C106.539 20.9313 105.734 20.7474 105.018 20.3798C104.302 20.0121 103.688 19.4964 103.175 18.8328C102.671 18.1692 102.287 17.3889 102.021 16.4921C101.756 15.5953 101.624 14.6178 101.624 13.5596ZM105.761 13.2771V13.5596C105.761 14.1336 105.814 14.6671 105.92 15.1604C106.035 15.6536 106.203 16.0886 106.424 16.4652C106.654 16.8419 106.936 17.1378 107.272 17.3531C107.617 17.5593 108.019 17.6625 108.479 17.6625C109.151 17.6625 109.695 17.519 110.11 17.232C110.534 16.9361 110.844 16.528 111.038 16.0079C111.242 15.4877 111.348 14.8824 111.356 14.1918V12.7794C111.356 12.2054 111.299 11.6898 111.184 11.2324C111.069 10.775 110.897 10.3894 110.667 10.0755C110.446 9.76166 110.154 9.52401 109.792 9.36258C109.438 9.19219 109.009 9.107 108.506 9.107C108.055 9.107 107.657 9.21461 107.312 9.42984C106.967 9.63611 106.68 9.92757 106.45 10.3042C106.22 10.6809 106.048 11.1248 105.933 11.636C105.818 12.1382 105.761 12.6852 105.761 13.2771Z" fill="#1F50FE"/>
<path d="M122.097 6.1072V20.6623H117.947V6.1072H122.097ZM117.695 2.34065C117.695 1.73082 117.907 1.2331 118.331 0.847475C118.756 0.452884 119.312 0.255588 120.002 0.255588C120.691 0.255588 121.248 0.452884 121.673 0.847475C122.106 1.2331 122.322 1.73082 122.322 2.34065C122.322 2.9415 122.106 3.43922 121.673 3.83382C121.248 4.21944 120.691 4.41225 120.002 4.41225C119.312 4.41225 118.756 4.21944 118.331 3.83382C117.907 3.43922 117.695 2.9415 117.695 2.34065Z" fill="#1F50FE"/>
<path d="M132.373 6.1072V9.05319H123.861V6.1072H132.373ZM125.81 2.50207H129.96V16.102C129.96 16.5056 130.009 16.815 130.106 17.0302C130.203 17.2454 130.362 17.3979 130.583 17.4876C130.804 17.5683 131.087 17.6087 131.432 17.6087C131.68 17.6087 131.892 17.5997 132.068 17.5817C132.245 17.5638 132.409 17.5414 132.559 17.5145V20.5546C132.205 20.6712 131.83 20.7609 131.432 20.8237C131.034 20.8954 130.601 20.9313 130.133 20.9313C129.24 20.9313 128.466 20.7833 127.812 20.4874C127.167 20.1914 126.672 19.7251 126.327 19.0884C125.982 18.4427 125.81 17.6042 125.81 16.5728V2.50207Z" fill="#1F50FE"/>
<path d="M141.96 17.1916V10.9499C141.96 10.5105 141.894 10.1338 141.761 9.81995C141.629 9.50607 141.421 9.25945 141.138 9.08009C140.855 8.90073 140.489 8.81105 140.038 8.81105C139.658 8.81105 139.326 8.87831 139.043 9.01283C138.769 9.14735 138.557 9.34016 138.407 9.59127C138.265 9.84237 138.195 10.1518 138.195 10.5195H134.057C134.057 9.86479 134.203 9.25497 134.495 8.68998C134.787 8.125 135.202 7.62728 135.741 7.19681C136.29 6.76635 136.944 6.43453 137.704 6.20137C138.464 5.95923 139.317 5.83816 140.263 5.83816C141.386 5.83816 142.385 6.03097 143.26 6.4166C144.144 6.79325 144.842 7.36272 145.355 8.125C145.868 8.87831 146.124 9.82892 146.124 10.9768V17.0706C146.124 17.9494 146.173 18.64 146.27 19.1422C146.376 19.6354 146.526 20.0659 146.721 20.4336V20.6623H142.544C142.349 20.2408 142.203 19.7206 142.106 19.1018C142.009 18.4741 141.96 17.8373 141.96 17.1916ZM142.478 11.7839L142.504 14.0977H140.449C139.989 14.0977 139.591 14.156 139.255 14.2726C138.928 14.3891 138.663 14.5506 138.46 14.7568C138.256 14.9541 138.106 15.1873 138.009 15.4563C137.921 15.7164 137.876 16.0034 137.876 16.3173C137.876 16.6132 137.947 16.8822 138.088 17.1244C138.23 17.3575 138.424 17.5414 138.672 17.6759C138.919 17.8104 139.207 17.8777 139.534 17.8777C140.073 17.8777 140.533 17.7701 140.913 17.5548C141.302 17.3396 141.602 17.0795 141.815 16.7746C142.027 16.4607 142.133 16.1693 142.133 15.9002L143.127 17.649C142.968 18.0077 142.774 18.3799 142.544 18.7655C142.314 19.1422 142.022 19.4964 141.669 19.8282C141.315 20.1511 140.886 20.4156 140.382 20.6219C139.887 20.8282 139.291 20.9313 138.592 20.9313C137.691 20.9313 136.873 20.7474 136.139 20.3798C135.406 20.0031 134.818 19.4874 134.376 18.8328C133.943 18.1781 133.726 17.4248 133.726 16.5728C133.726 15.8106 133.863 15.1335 134.137 14.5416C134.411 13.9497 134.822 13.4475 135.37 13.035C135.927 12.6224 136.625 12.3131 137.465 12.1068C138.305 11.8916 139.286 11.7839 140.409 11.7839H142.478Z" fill="#1F50FE"/>
<path d="M153.205 0V20.6623H149.054V0H153.205Z" fill="#1F50FE"/>
<path d="M162.513 20.6623H158.27L158.297 17.2724H162.513C163.477 17.2724 164.29 17.0482 164.953 16.5998C165.616 16.1424 166.12 15.4698 166.465 14.582C166.809 13.6852 166.982 12.5955 166.982 11.3131V10.4118C166.982 9.44329 166.885 8.59134 166.69 7.85596C166.496 7.11162 166.208 6.48834 165.828 5.98613C165.448 5.48393 164.975 5.10727 164.409 4.85617C163.853 4.60506 163.212 4.47951 162.487 4.47951H158.191V1.07616H162.487C163.795 1.07616 164.988 1.30036 166.067 1.74876C167.154 2.19716 168.091 2.83837 168.878 3.67239C169.674 4.50642 170.288 5.49289 170.721 6.63183C171.154 7.77076 171.371 9.03973 171.371 10.4387V11.3131C171.371 12.7032 171.154 13.9721 170.721 15.12C170.288 16.259 169.674 17.2454 168.878 18.0795C168.091 18.9045 167.159 19.5413 166.08 19.9897C165.002 20.4381 163.813 20.6623 162.513 20.6623ZM160.723 1.07616V20.6623H156.4V1.07616H160.723Z" fill="#1F50FE"/>
<path d="M177.948 9.4971V20.6623H173.811V6.1072H177.696L177.948 9.4971ZM182.231 5.99959L182.164 9.91411C181.988 9.88721 181.758 9.86479 181.475 9.84685C181.192 9.81995 180.949 9.8065 180.746 9.8065C180.215 9.8065 179.756 9.87376 179.367 10.0083C178.987 10.1338 178.668 10.3222 178.412 10.5733C178.164 10.8244 177.979 11.1382 177.855 11.5149C177.731 11.8826 177.669 12.3086 177.669 12.7928L176.887 12.4027C176.887 11.4432 176.98 10.5643 177.165 9.76614C177.351 8.96799 177.621 8.27746 177.974 7.69454C178.328 7.10265 178.761 6.64528 179.274 6.32243C179.787 5.99959 180.37 5.83816 181.024 5.83816C181.236 5.83816 181.453 5.85161 181.674 5.87852C181.895 5.90542 182.08 5.94578 182.231 5.99959Z" fill="#1F50FE"/>
<path d="M190.425 20.9313C189.285 20.9313 188.264 20.7474 187.362 20.3798C186.461 20.0121 185.696 19.5054 185.068 18.8597C184.45 18.205 183.977 17.4517 183.65 16.5998C183.323 15.7478 183.159 14.8375 183.159 13.869V13.3578C183.159 12.2727 183.309 11.2728 183.61 10.358C183.91 9.44329 184.348 8.64963 184.923 7.97703C185.506 7.29546 186.222 6.77083 187.071 6.40315C187.919 6.02649 188.887 5.83816 189.975 5.83816C190.991 5.83816 191.897 6.00855 192.693 6.34934C193.488 6.68115 194.16 7.16094 194.708 7.7887C195.256 8.40749 195.672 9.15632 195.955 10.0352C196.247 10.9051 196.392 11.8826 196.392 12.9677V14.6896H184.83V11.9857H192.335V11.6629C192.335 11.1517 192.242 10.7033 192.056 10.3177C191.88 9.93205 191.614 9.63611 191.261 9.42984C190.916 9.21461 190.478 9.107 189.948 9.107C189.444 9.107 189.024 9.21461 188.688 9.42984C188.352 9.64507 188.083 9.94999 187.88 10.3446C187.685 10.7302 187.544 11.1831 187.455 11.7032C187.367 12.2144 187.323 12.7659 187.323 13.3578V13.869C187.323 14.434 187.398 14.9496 187.548 15.416C187.698 15.8823 187.919 16.2814 188.211 16.6132C188.503 16.945 188.856 17.2051 189.272 17.3934C189.687 17.5817 190.16 17.6759 190.691 17.6759C191.345 17.6759 191.968 17.5504 192.56 17.2993C193.153 17.0392 193.665 16.6356 194.098 16.0886L196.034 18.3351C195.743 18.7655 195.332 19.1825 194.801 19.5861C194.28 19.9807 193.652 20.3035 192.918 20.5546C192.185 20.8057 191.354 20.9313 190.425 20.9313Z" fill="#1F50FE"/>
<path d="M206.006 17.1916V10.9499C206.006 10.5105 205.94 10.1338 205.807 9.81995C205.674 9.50607 205.467 9.25945 205.184 9.08009C204.901 8.90073 204.534 8.81105 204.083 8.81105C203.703 8.81105 203.372 8.87831 203.089 9.01283C202.815 9.14735 202.602 9.34016 202.452 9.59127C202.311 9.84237 202.24 10.1518 202.24 10.5195H198.103C198.103 9.86479 198.249 9.25497 198.54 8.68998C198.832 8.125 199.248 7.62728 199.787 7.19681C200.335 6.76635 200.989 6.43453 201.749 6.20137C202.51 5.95923 203.363 5.83816 204.309 5.83816C205.431 5.83816 206.43 6.03097 207.305 6.4166C208.189 6.79325 208.888 7.36272 209.4 8.125C209.913 8.87831 210.169 9.82892 210.169 10.9768V17.0706C210.169 17.9494 210.218 18.64 210.315 19.1422C210.421 19.6354 210.572 20.0659 210.766 20.4336V20.6623H206.589C206.395 20.2408 206.249 19.7206 206.152 19.1018C206.054 18.4741 206.006 17.8373 206.006 17.1916ZM206.523 11.7839L206.549 14.0977H204.494C204.035 14.0977 203.637 14.156 203.301 14.2726C202.974 14.3891 202.709 14.5506 202.505 14.7568C202.302 14.9541 202.152 15.1873 202.054 15.4563C201.966 15.7164 201.922 16.0034 201.922 16.3173C201.922 16.6132 201.992 16.8822 202.134 17.1244C202.275 17.3575 202.47 17.5414 202.717 17.6759C202.965 17.8104 203.252 17.8777 203.579 17.8777C204.118 17.8777 204.578 17.7701 204.958 17.5548C205.347 17.3396 205.648 17.0795 205.86 16.7746C206.072 16.4607 206.178 16.1693 206.178 15.9002L207.173 17.649C207.014 18.0077 206.819 18.3799 206.589 18.7655C206.359 19.1422 206.068 19.4964 205.714 19.8282C205.361 20.1511 204.932 20.4156 204.428 20.6219C203.933 20.8282 203.336 20.9313 202.638 20.9313C201.736 20.9313 200.918 20.7474 200.185 20.3798C199.451 20.0031 198.863 19.4874 198.421 18.8328C197.988 18.1781 197.771 17.4248 197.771 16.5728C197.771 15.8106 197.908 15.1335 198.182 14.5416C198.457 13.9497 198.868 13.4475 199.416 13.035C199.973 12.6224 200.671 12.3131 201.511 12.1068C202.351 11.8916 203.332 11.7839 204.454 11.7839H206.523Z" fill="#1F50FE"/>
<path d="M217.038 9.1608V20.6623H212.901V6.1072H216.786L217.038 9.1608ZM216.508 12.8736L215.46 12.9005C215.46 11.8781 215.579 10.9409 215.818 10.089C216.066 9.22806 216.424 8.47924 216.892 7.84251C217.361 7.20578 217.94 6.71254 218.629 6.36279C219.328 6.01304 220.132 5.83816 221.043 5.83816C221.679 5.83816 222.258 5.93681 222.78 6.13411C223.301 6.32243 223.748 6.62286 224.119 7.03539C224.499 7.43895 224.791 7.96806 224.994 8.62272C225.197 9.26842 225.299 10.0442 225.299 10.9499V20.6623H221.162V11.4611C221.162 10.8154 221.082 10.3266 220.923 9.99483C220.773 9.65404 220.552 9.42087 220.26 9.29532C219.969 9.16977 219.619 9.107 219.213 9.107C218.771 9.107 218.377 9.20564 218.033 9.40294C217.697 9.59127 217.414 9.85582 217.184 10.1966C216.954 10.5374 216.782 10.9365 216.667 11.3938C216.561 11.8512 216.508 12.3444 216.508 12.8736ZM224.875 12.6583L223.562 12.7659C223.562 11.7795 223.677 10.8647 223.907 10.0217C224.137 9.17874 224.481 8.44785 224.941 7.82906C225.401 7.2013 225.971 6.71254 226.652 6.36279C227.341 6.01304 228.141 5.83816 229.052 5.83816C229.723 5.83816 230.333 5.93681 230.881 6.13411C231.438 6.3314 231.916 6.64977 232.314 7.0892C232.72 7.52863 233.034 8.10706 233.255 8.8245C233.476 9.53298 233.586 10.4029 233.586 11.4342V20.6623H229.423V11.4342C229.423 10.7975 229.343 10.3132 229.184 9.98137C229.034 9.64956 228.813 9.42087 228.521 9.29532C228.238 9.16977 227.898 9.107 227.5 9.107C227.058 9.107 226.674 9.20116 226.347 9.38949C226.019 9.56885 225.745 9.81995 225.524 10.1428C225.303 10.4567 225.14 10.8288 225.034 11.2593C224.928 11.6898 224.875 12.1561 224.875 12.6583Z" fill="#1F50FE"/>
<path d="M243.996 16.6132C243.996 16.3442 243.912 16.1065 243.744 15.9002C243.584 15.694 243.293 15.5057 242.868 15.3353C242.453 15.1649 241.865 14.9945 241.105 14.8241C240.389 14.6716 239.721 14.4743 239.103 14.2322C238.484 13.9811 237.945 13.6807 237.485 13.3309C237.025 12.9722 236.667 12.5507 236.411 12.0664C236.154 11.5732 236.026 11.0127 236.026 10.3849C236.026 9.77511 236.154 9.19668 236.411 8.64963C236.676 8.10258 237.056 7.61831 237.551 7.19681C238.055 6.77532 238.665 6.4435 239.381 6.20137C240.106 5.95923 240.928 5.83816 241.847 5.83816C243.112 5.83816 244.203 6.03994 245.123 6.4435C246.042 6.83809 246.749 7.39411 247.244 8.11155C247.739 8.82002 247.987 9.63162 247.987 10.5464H243.85C243.85 10.1697 243.779 9.84237 243.637 9.56436C243.496 9.28636 243.279 9.07112 242.988 8.91867C242.696 8.75724 242.311 8.67653 241.834 8.67653C241.463 8.67653 241.136 8.74379 240.853 8.87831C240.579 9.00386 240.362 9.17874 240.203 9.40294C240.053 9.62714 239.978 9.88721 239.978 10.1832C239.978 10.3894 240.022 10.5777 240.11 10.7481C240.208 10.9096 240.353 11.062 240.548 11.2055C240.751 11.34 241.012 11.4611 241.33 11.5687C241.657 11.6763 242.055 11.7795 242.524 11.8781C243.523 12.0664 244.433 12.331 245.255 12.6718C246.086 13.0126 246.749 13.4834 247.244 14.0842C247.748 14.6851 248 15.4788 248 16.4652C248 17.1109 247.854 17.7028 247.562 18.2409C247.28 18.779 246.868 19.2498 246.329 19.6534C245.79 20.0569 245.145 20.3708 244.393 20.595C243.642 20.8192 242.793 20.9313 241.847 20.9313C240.495 20.9313 239.35 20.6847 238.413 20.1914C237.476 19.6982 236.769 19.0794 236.291 18.3351C235.823 17.5817 235.589 16.8105 235.589 16.0213H239.474C239.492 16.5056 239.611 16.9002 239.832 17.2051C240.062 17.51 240.358 17.7342 240.72 17.8777C241.083 18.0122 241.489 18.0795 241.94 18.0795C242.391 18.0795 242.767 18.0167 243.067 17.8911C243.368 17.7656 243.598 17.5952 243.757 17.38C243.916 17.1558 243.996 16.9002 243.996 16.6132Z" fill="#1F50FE"/>
<path d="M92.9782 49.0594V56.9557C92.66 57.3234 92.1738 57.718 91.5196 58.1395C90.8743 58.561 90.0478 58.9242 89.04 59.2291C88.0323 59.525 86.83 59.673 85.4333 59.673C84.1692 59.673 83.02 59.4668 81.9857 59.0542C80.9515 58.6327 80.063 58.0184 79.3205 57.2113C78.5779 56.3952 78.0033 55.3998 77.5967 54.225C77.1989 53.0502 77 51.705 77 50.1894V49.0325C77 47.5169 77.1989 46.1717 77.5967 44.9969C77.9945 43.8221 78.5558 42.8311 79.2807 42.024C80.0056 41.2079 80.8675 40.5891 81.8664 40.1676C82.8653 39.7461 83.9703 39.5354 85.1814 39.5354C86.9052 39.5354 88.3151 39.8179 89.4113 40.3829C90.5074 40.9389 91.3384 41.7101 91.9042 42.6966C92.4788 43.6831 92.8324 44.8175 92.965 46.1H88.8013C88.7129 45.4453 88.5361 44.8803 88.2709 44.405C88.0146 43.9297 87.6477 43.5665 87.1704 43.3154C86.693 43.0553 86.0742 42.9253 85.314 42.9253C84.704 42.9253 84.1515 43.0553 83.6565 43.3154C83.1703 43.5665 82.7592 43.9476 82.4233 44.4588C82.0874 44.97 81.831 45.6067 81.6542 46.369C81.4774 47.1223 81.389 48.0012 81.389 49.0056V50.1894C81.389 51.1938 81.4774 52.0771 81.6542 52.8394C81.8399 53.6017 82.1095 54.2384 82.4631 54.7496C82.8167 55.2518 83.2631 55.6329 83.8023 55.893C84.3504 56.1531 84.9869 56.2831 85.7118 56.2831C86.2775 56.2831 86.7549 56.2383 87.1438 56.1486C87.5328 56.0499 87.851 55.9289 88.0986 55.7854C88.3461 55.6329 88.5317 55.4939 88.6555 55.3684V52.113H85.2212V49.0594H92.9782Z" fill="#1F50FE"/>
<path d="M99.8734 48.2388V59.404H95.7363V44.8489H99.6214L99.8734 48.2388ZM104.156 44.7413L104.09 48.6558C103.913 48.6289 103.683 48.6065 103.401 48.5886C103.118 48.5617 102.875 48.5482 102.671 48.5482C102.141 48.5482 101.681 48.6155 101.292 48.75C100.912 48.8756 100.594 49.0639 100.337 49.315C100.09 49.5661 99.9043 49.88 99.7806 50.2566C99.6568 50.6243 99.5949 51.0503 99.5949 51.5346L98.8126 51.1445C98.8126 50.1849 98.9054 49.306 99.091 48.5079C99.2767 47.7097 99.5463 47.0192 99.8999 46.4363C100.253 45.8444 100.687 45.387 101.199 45.0642C101.712 44.7413 102.296 44.5799 102.95 44.5799C103.162 44.5799 103.378 44.5933 103.599 44.6202C103.82 44.6471 104.006 44.6875 104.156 44.7413Z" fill="#1F50FE"/>
<path d="M104.806 52.2744V51.9919C104.806 50.9247 104.956 49.9427 105.257 49.0459C105.557 48.1402 105.999 47.3555 106.583 46.6918C107.166 46.0282 107.882 45.5126 108.731 45.1449C109.58 44.7682 110.552 44.5799 111.648 44.5799C112.762 44.5799 113.743 44.7682 114.592 45.1449C115.449 45.5126 116.17 46.0282 116.753 46.6918C117.337 47.3555 117.779 48.1402 118.079 49.0459C118.38 49.9427 118.53 50.9247 118.53 51.9919V52.2744C118.53 53.3326 118.38 54.3146 118.079 55.2204C117.779 56.1172 117.337 56.9019 116.753 57.5745C116.17 58.2381 115.454 58.7538 114.605 59.1215C113.757 59.4892 112.78 59.673 111.675 59.673C110.579 59.673 109.602 59.4892 108.744 59.1215C107.887 58.7538 107.166 58.2381 106.583 57.5745C105.999 56.9019 105.557 56.1172 105.257 55.2204C104.956 54.3146 104.806 53.3326 104.806 52.2744ZM108.956 51.9919V52.2744C108.956 52.8484 109.001 53.3865 109.089 53.8887C109.186 54.3909 109.341 54.8303 109.553 55.207C109.765 55.5836 110.044 55.8796 110.388 56.0948C110.742 56.301 111.171 56.4042 111.675 56.4042C112.179 56.4042 112.603 56.301 112.948 56.0948C113.292 55.8796 113.571 55.5836 113.783 55.207C113.995 54.8303 114.145 54.3909 114.234 53.8887C114.331 53.3865 114.38 52.8484 114.38 52.2744V51.9919C114.38 51.4269 114.331 50.8978 114.234 50.4046C114.145 49.9024 113.995 49.4585 113.783 49.0728C113.571 48.6872 113.288 48.3868 112.934 48.1716C112.59 47.9563 112.161 47.8487 111.648 47.8487C111.153 47.8487 110.733 47.9563 110.388 48.1716C110.044 48.3868 109.765 48.6872 109.553 49.0728C109.341 49.4585 109.186 49.9024 109.089 50.4046C109.001 50.8978 108.956 51.4269 108.956 51.9919Z" fill="#1F50FE"/>
<path d="M129.125 55.893V44.8489H133.288V59.404H129.39L129.125 55.893ZM129.562 52.9201L130.703 52.8932C130.703 53.8707 130.588 54.772 130.358 55.5971C130.137 56.4221 129.801 57.1396 129.35 57.7494C128.908 58.3592 128.356 58.8345 127.693 59.1753C127.039 59.5071 126.274 59.673 125.399 59.673C124.692 59.673 124.042 59.5744 123.45 59.3771C122.866 59.1708 122.362 58.8524 121.938 58.422C121.514 57.9825 121.186 57.422 120.957 56.7405C120.727 56.0499 120.612 55.2249 120.612 54.2653V44.8489H124.749V54.2922C124.749 54.6689 124.793 54.9917 124.882 55.2608C124.979 55.5208 125.107 55.7361 125.266 55.9065C125.434 56.0769 125.637 56.2024 125.876 56.2831C126.124 56.3638 126.393 56.4042 126.685 56.4042C127.419 56.4042 127.993 56.2517 128.409 55.9468C128.833 55.6329 129.129 55.2159 129.297 54.6958C129.474 54.1667 129.562 53.5748 129.562 52.9201Z" fill="#1F50FE"/>
<path d="M140.131 47.6469V65H135.993V44.8489H139.852L140.131 47.6469ZM149.081 51.965V52.2475C149.081 53.3057 148.962 54.2877 148.723 55.1935C148.484 56.0903 148.126 56.875 147.649 57.5476C147.18 58.2202 146.601 58.7448 145.912 59.1215C145.222 59.4892 144.422 59.673 143.512 59.673C142.645 59.673 141.894 59.4892 141.258 59.1215C140.63 58.7448 140.1 58.2247 139.666 57.5611C139.242 56.8885 138.897 56.1217 138.632 55.2608C138.376 54.3909 138.177 53.4627 138.035 52.4762V51.9247C138.177 50.8754 138.38 49.9024 138.645 49.0056C138.911 48.1088 139.255 47.3331 139.68 46.6784C140.104 46.0148 140.63 45.4991 141.258 45.1314C141.885 44.7637 142.632 44.5799 143.499 44.5799C144.4 44.5799 145.2 44.7548 145.899 45.1045C146.597 45.4543 147.18 45.9565 147.649 46.6111C148.126 47.2568 148.484 48.0326 148.723 48.9383C148.962 49.8441 149.081 50.853 149.081 51.965ZM144.931 52.2475V51.965C144.931 51.3731 144.886 50.8306 144.798 50.3373C144.71 49.8351 144.568 49.4002 144.374 49.0325C144.179 48.6558 143.923 48.3644 143.605 48.1581C143.286 47.9519 142.897 47.8487 142.438 47.8487C141.943 47.8487 141.523 47.9294 141.178 48.0909C140.833 48.2523 140.555 48.4899 140.343 48.8038C140.131 49.1087 139.976 49.4854 139.879 49.9338C139.79 50.3822 139.742 50.8933 139.733 51.4673V52.947C139.742 53.6196 139.834 54.2205 140.011 54.7496C140.197 55.2697 140.484 55.6778 140.873 55.9737C141.271 56.2607 141.801 56.4042 142.464 56.4042C142.933 56.4042 143.322 56.301 143.631 56.0948C143.949 55.8796 144.201 55.5791 144.387 55.1935C144.581 54.8079 144.718 54.364 144.798 53.8618C144.886 53.3595 144.931 52.8215 144.931 52.2475Z" fill="#1F50FE"/>
<rect width="68" height="64" rx="10" fill="#1F50FE"/>
<path fill-rule="evenodd" clip-rule="evenodd" d="M29.1046 10H10V46.9614H17.022V54H36.1266C40.4459 54 44.2484 53.2608 47.534 51.7823C50.8565 50.2687 53.4223 48.1214 55.2312 45.3405C57.0771 42.5596 58 39.2858 58 35.5193C58 31.7527 57.0771 28.479 55.2312 25.6981C53.7043 23.3507 51.6381 21.4673 49.0327 20.048C48.7824 19.5723 48.5079 19.1094 48.2093 18.6595C46.4003 15.8786 43.8346 13.7489 40.512 12.2705C37.2264 10.7568 33.4239 10 29.1046 10ZM49.0327 20.048C48.5515 19.7858 48.0519 19.5395 47.534 19.309C44.2484 17.7954 40.4459 17.0386 36.1266 17.0386H17.022V46.9614H29.1046C33.4239 46.9614 37.2264 46.2222 40.512 44.7438C43.8346 43.2301 46.4003 41.0828 48.2093 38.3019C50.0551 35.521 50.9781 32.2473 50.9781 28.4807C50.9781 25.3235 50.3296 22.5126 49.0327 20.048ZM30.0906 37.1636C29.5981 37.2185 29.0849 37.2459 28.5509 37.2459H23.0687V19.7156H28.5509C31.3566 19.7156 33.5901 20.49 35.2513 22.0389C36.6171 23.2562 37.4336 24.8833 37.701 26.9203C37.0325 26.8095 36.3231 26.7541 35.5728 26.7541H30.0906V37.1636ZM30.0906 37.1636V44.2844H35.5728C38.3785 44.2844 40.612 43.5276 42.2733 42.0139C43.9715 40.4651 44.8206 38.3002 44.8206 35.5193C44.8206 32.7384 43.9715 30.5911 42.2733 29.0774C41.0563 27.9428 39.5322 27.2237 37.701 26.9203C37.7661 27.4161 37.7986 27.9363 37.7986 28.4807C37.7986 31.2616 36.9495 33.4265 35.2513 34.9754C33.9062 36.201 32.186 36.9304 30.0906 37.1636Z" fill="white"/>
</svg>
